<svg width="46" height="60" viewBox="0 0 46 60" fill="none" xmlns="http://www.w3.org/2000/svg">
<rect x="4" y="21.1406" width="34" height="33" fill="#2F3245"/>
<path d="M31.6719 17.5781C29.4103 17.5781 27.5703 15.7382 27.5703 13.4766V0H6.59375C3.0398 0 0.148438 2.89137 0.148438 6.44531V53.5547C0.148438 57.1086 3.0398 60 6.59375 60H39.4062C42.9602 60 45.8516 57.1086 45.8516 53.5547V17.5781H31.6719ZM9.75781 42.1875H18.2797C19.2505 42.1875 20.0375 42.9745 20.0375 43.9453C20.0375 44.9161 19.2505 45.7031 18.2797 45.7031H9.75781C8.78703 45.7031 8 44.9161 8 43.9453C8 42.9745 8.78703 42.1875 9.75781 42.1875ZM8 34.5703C8 33.5995 8.78703 32.8125 9.75781 32.8125H35.5391C36.5098 32.8125 37.2969 33.5995 37.2969 34.5703C37.2969 35.5411 36.5098 36.3281 35.5391 36.3281H9.75781C8.78703 36.3281 8 35.5411 8 34.5703ZM35.5391 23.4375C36.5098 23.4375 37.2969 24.2245 37.2969 25.1953C37.2969 26.1661 36.5098 26.9531 35.5391 26.9531H9.75781C8.78703 26.9531 8 26.1661 8 25.1953C8 24.2245 8.78703 23.4375 9.75781 23.4375H35.5391Z" fill="#FFCB05"/>
<path d="M31.0859 13.4765C31.0859 13.7996 31.3488 14.0625 31.6719 14.0625H45.068C44.7465 13.4688 44.3328 12.9235 43.8358 12.4533L32.5363 1.76318C32.0977 1.34834 31.6093 1.00229 31.0861 0.729004V13.4765H31.0859Z" fill="#FFCB05"/>
</svg>
