<svg width="60" height="60" viewBox="0 0 60 60" fill="none" xmlns="http://www.w3.org/2000/svg">
<rect x="4" y="14.1406" width="26" height="33" fill="#2F3245"/>
<path d="M53.1248 7.14056H6.87515C3.08258 7.14056 0 10.2231 0 14.0157V45.2654C0 49.058 3.08258 52.1406 6.87515 52.1406H53.1248C56.9174 52.1406 60 49.058 60 45.2654V14.0157C60 10.2231 56.9174 7.14056 53.1248 7.14056V7.14056ZM18.75 17.1404C22.1951 17.1404 24.9998 19.9456 24.9998 23.3907C24.9998 26.8354 22.1951 29.6406 18.75 29.6406C15.3049 29.6406 12.5002 26.8354 12.5002 23.3907C12.5002 19.9456 15.3049 17.1404 18.75 17.1404ZM30 40.2657C30 41.3007 29.16 42.1407 28.125 42.1407H9.375C8.34 42.1407 7.5 41.3007 7.5 40.2657V39.0156C7.5 35.223 10.5826 32.1404 14.3752 32.1404H23.1248C26.9174 32.1404 30 35.223 30 39.0156V40.2657ZM50.625 42.1407H36.8752C35.8401 42.1407 35.0002 41.3007 35.0002 40.2657C35.0002 39.2307 35.8401 38.3907 36.8752 38.3907H50.625C51.66 38.3907 52.5 39.2307 52.5 40.2657C52.5 41.3007 51.66 42.1407 50.625 42.1407ZM50.625 32.1404H36.8752C35.8401 32.1404 35.0002 31.3004 35.0002 30.2654C35.0002 29.2304 35.8401 28.3904 36.8752 28.3904H50.625C51.66 28.3904 52.5 29.2304 52.5 30.2654C52.5 31.3004 51.66 32.1404 50.625 32.1404ZM50.625 22.1406H36.8752C35.8401 22.1406 35.0002 21.3006 35.0002 20.2656C35.0002 19.2306 35.8401 18.3906 36.8752 18.3906H50.625C51.66 18.3906 52.5 19.2306 52.5 20.2656C52.5 21.3006 51.66 22.1406 50.625 22.1406Z" fill="#FFCB05"/>
</svg>
